<?xml version="1.0" encoding="UTF-8"?>
<svg width="9px" height="12px" viewBox="0 0 9 12" version="1.1" xmlns="http://www.w3.org/2000/svg" xmlns:xlink="http://www.w3.org/1999/xlink">
    <!-- Generator: Sketch 52.1 (67048) - http://www.bohemiancoding.com/sketch -->
    <title>Shape</title>
    <desc>Created with Sketch.</desc>
    <g id="Dashboard" stroke="none" stroke-width="1" fill="none" fill-rule="evenodd">
        <g id="Admin-dashboard" transform="translate(-92.000000, -789.000000)" fill="#808080" fill-rule="nonzero">
            <g id="Media" transform="translate(24.000000, 556.000000)">
                <g id="videos-1">
                    <g id="Media-1">
                        <g id="video-location" transform="translate(68.000000, 228.000000)">
                            <g id="map-marker-alt-copy-3" transform="translate(0.000000, 5.000000)">
                                <path d="M4.03753125,11.7578878 C0.632109375,6.8210374 0,6.31436565 0,4.4999989 C0,2.01471045 2.01471094,0 4.5,0 C6.98528906,0 9,2.01471045 9,4.4999989 C9,6.31436565 8.36789062,6.8210374 4.96246875,11.7578878 C4.73899219,12.0807158 4.26098437,12.0806924 4.03753125,11.7578878 Z M4.5,6.37499844 C5.53553906,6.37499844 6.375,5.53553771 6.375,4.4999989 C6.375,3.46446009 5.53553906,2.62499936 4.5,2.62499936 C3.46446094,2.62499936 2.625,3.46446009 2.625,4.4999989 C2.625,5.53553771 3.46446094,6.37499844 4.5,6.37499844 Z" id="Shape"></path>
                            </g>
                        </g>
                    </g>
                </g>
            </g>
        </g>
    </g>
</svg>