<?xml version="1.0" encoding="UTF-8"?>
<svg width="130px" height="34px" viewBox="0 0 130 34" version="1.1" xmlns="http://www.w3.org/2000/svg" xmlns:xlink="http://www.w3.org/1999/xlink">
    <!-- Generator: Sketch 52.1 (67048) - http://www.bohemiancoding.com/sketch -->
    <title>BCaster logo</title>
    <desc>Created with Sketch.</desc>
    <g id="Symbols" stroke="none" stroke-width="1" fill="none" fill-rule="evenodd">
        <g id="top-bar-admin-dashboard" transform="translate(-24.000000, -13.000000)" fill="#FF9100" fill-rule="nonzero">
            <g id="top-bar">
                <g id="BCaster-logo" transform="translate(24.000000, 12.000000)">
                    <path d="M29.8115576,27.5258746 L29.8115576,30.1632011 C29.9114088,31.4190927 29.228187,32.6069669 28.0924114,33.1521712 C26.4750185,33.8035572 24.7348067,34.0935925 22.9935801,34.0019764 L15.8630307,34.0019764 L15.8630307,16.8495861 L22.8079905,16.8495861 C25.2369357,16.8495861 26.8844508,17.1230867 27.7505358,17.6700877 C28.6634056,18.3148605 29.1595166,19.4003366 29.0496633,20.5125396 L29.0496633,22.6224009 C29.0474823,23.139685 28.8402281,23.6349874 28.4733586,23.9996714 C28.1225722,24.4014332 27.6654872,24.695999 27.1546953,24.8494766 L27.1546953,24.9862269 C27.8299632,25.0774079 28.4608418,25.3740914 28.9617524,25.8360321 C29.4864382,26.2414494 29.798973,26.8629267 29.8115576,27.5258746 Z M25.0839056,22.1047034 L25.0839056,21.2548982 C25.132852,20.8268357 24.98565,20.3995908 24.6834227,20.092521 C24.0726454,19.8130338 23.3973371,19.7049844 22.7298475,19.7799489 L19.9850743,19.7799489 L19.9850743,23.8238496 L22.8079905,23.8238496 C23.4545448,23.8980157 24.1079316,23.7646016 24.6736548,23.4429024 C24.9886706,23.0722649 25.1370662,22.5882126 25.0839056,22.1047034 Z M25.6895139,29.6064322 L25.6895139,28.2389296 C25.7419894,27.7384926 25.5619716,27.2416434 25.2011201,26.8909627 C24.6745932,26.5688356 24.0569976,26.428161 23.4429024,26.4904798 L19.9850743,26.4904798 L19.9850743,31.0618457 L22.9154371,31.0618457 C23.6452028,31.1118339 24.3767667,30.9949173 25.054602,30.7199701 C25.4684263,30.5076362 25.7175532,30.0707059 25.6895139,29.6064322 Z" id="Shape"></path>
                    <path d="M45.772267,33.6796365 C43.9466728,34.0570816 42.0882774,34.253391 40.2241134,34.2657091 C39.5208264,34.2657091 38.8696346,34.2364054 38.2705382,34.1777982 C37.551112,34.1018694 36.8389964,33.9679394 36.1411413,33.7773153 C35.4512705,33.6069886 34.7921665,33.330165 34.1875661,32.9568137 C32.9480731,32.1591956 32.2091297,30.7773714 32.2339909,29.3036281 L32.2339909,21.7628278 C32.2339909,18.3245354 34.8973651,16.6053892 40.2241134,16.6053892 C42.0498316,16.656882 43.8688291,16.8495586 45.6648204,17.1816939 L45.6648204,20.2683427 C43.9040987,19.8222497 42.0986172,19.5764945 40.2827207,19.535752 C39.6836243,19.535752 39.1952305,19.5520318 38.8175393,19.5845914 C38.4113889,19.6257427 38.011445,19.7142548 37.6258584,19.8483241 C37.2488666,19.9608598 36.921531,20.1986088 36.6979102,20.5223075 C36.4812065,20.8843753 36.3758935,21.3022299 36.395106,21.7237563 L36.395106,29.0203596 C36.395106,30.570196 37.814704,31.3451141 40.6539,31.3451141 C42.3859333,31.2787631 44.1055243,31.023281 45.7820349,30.5832198 L45.772267,33.6796365 Z" id="Shape"></path>
                    <path d="M64.1651776,34.0019764 L59.9942945,34.0019764 L58.460738,29.4794498 L52.1995294,29.4794498 L50.6952765,34.0019764 L46.6220722,34.0019764 L52.9614238,16.8495861 L57.982112,16.8495861 L64.1651776,34.0019764 Z M57.5620934,26.7346767 L55.3936249,20.2878785 L55.2861783,20.2878785 L53.1177098,26.7346767 L57.5620934,26.7346767 Z" id="Shape"></path>
                    <path d="M79.2272424,27.9751969 L79.2272424,29.1082705 C79.2560179,30.0005035 79.0648074,30.8861101 78.6704734,31.6869898 C78.3062632,32.3759913 77.731256,32.9304625 77.0294703,33.2693857 C76.2828267,33.6370876 75.4864792,33.8937616 74.6656443,34.03128 C73.6580107,34.1925959 72.6384633,34.2677548 71.618067,34.2559412 C69.5847691,34.225207 67.5554768,34.0653431 65.5424481,33.7773153 L65.5424481,30.6418271 C67.5698338,31.0050492 69.6190691,31.2334672 71.6766742,31.3255784 C73.9688691,31.3255784 75.1149666,30.7362499 75.1149666,29.5575928 L75.1149666,28.444055 C75.1324036,27.9848852 74.9713726,27.536799 74.6656443,27.1937668 C74.1541126,26.8008958 73.5083709,26.6254226 72.8683551,26.705373 L70.8464048,26.705373 C67.0760046,26.705373 65.1908045,25.207632 65.1908045,22.2121501 L65.1908045,20.9423262 C65.1263541,19.5772173 65.8521751,18.2965803 67.0564689,17.650552 C68.3002451,16.9342411 70.2863799,16.5760856 73.0148732,16.5760856 C74.3172567,16.5760856 76.104778,16.6900442 78.3774372,16.9179613 L78.3774372,19.9850743 C75.7010391,19.6855261 73.8711904,19.535752 72.8878908,19.535752 C71.9403761,19.4769572 70.990125,19.5928415 70.0845104,19.8776277 C69.6259982,20.0686656 69.3340711,20.5240718 69.3519197,21.0204692 L69.3519197,22.2316858 C69.3519197,23.1303304 70.1105581,23.5796527 71.6278348,23.5796527 L73.6497852,23.5796527 C75.6554557,23.5796527 77.0880775,23.950832 77.9476506,24.6931906 C78.8460612,25.5390795 79.3160038,26.7444284 79.2272424,27.9751969 Z" id="Shape"></path>
                    <polygon id="Shape" points="95.4223808 19.7799489 90.1672635 19.7799489 90.1672635 34.0019764 86.0452198 34.0019764 86.0452198 19.7799489 80.7607989 19.7799489 80.7607989 16.8495861 95.4126129 16.8495861"></polygon>
                    <polygon id="Shape" points="111.148661 34.0019764 97.8057426 34.0019764 97.8057426 16.8495861 110.884929 16.8495861 110.884929 19.7799489 101.927786 19.7799489 101.927786 23.6870993 110.015588 23.6870993 110.015588 26.6174621 101.927786 26.6174621 101.927786 31.0618457 111.148661 31.0618457"></polygon>
                    <path d="M129.189928,34.0019764 L124.432973,34.0019764 L119.93975,27.262142 L118.035014,27.262142 L118.035014,34.0019764 L113.91297,34.0019764 L113.91297,16.8495861 L121.629592,16.8495861 C123.317974,16.7454596 125.007963,17.0260111 126.572137,17.6700877 C127.604024,18.2108113 128.217606,19.3114234 128.134998,20.4734681 L128.134998,23.4429024 C128.188453,24.399428 127.754811,25.3181601 126.982388,25.8848714 C126.160263,26.4762624 125.196598,26.8401639 124.188776,26.9398021 L129.189928,34.0019764 Z M124.052025,22.6614724 L124.052025,21.4893272 C124.112661,20.9828418 123.896258,20.4828764 123.485489,20.1804319 C122.876315,19.8936478 122.203368,19.7691526 121.531913,19.8190204 L117.995942,19.8190204 L117.995942,24.5759761 L121.531913,24.5759761 C122.205925,24.6343436 122.882787,24.5023554 123.485489,24.1950289 C123.91641,23.8090473 124.128513,23.2349043 124.052025,22.6614724 Z" id="Shape"></path>
                    <g id="_6ip8Pj.tif">
                        <path d="M5.24534942,4.53229447 C5.79235048,4.14157943 6.32958366,3.72156076 6.89612047,3.35038147 C9.48585385,1.61662005 12.5780568,0.792032591 15.6872089,1.00609123 L15.8044234,1.00609123 L15.8044234,3.51643537 C12.1952967,3.17334273 8.62900111,4.509803 6.13422614,7.14031737 C3.48726835,9.63396095 2.13920147,13.2095822 2.48104051,16.8300504 L0,16.8300504 C0,16.1169954 0,15.3355653 0,14.5639031 C0.231875716,11.8239095 1.24935091,9.2089982 2.93036281,7.03287073 C3.12572033,6.76913808 3.32107785,6.49563755 3.50666749,6.2319049 L5.24534942,4.53229447 Z" id="Shape"></path>
                        <path d="M15.8532628,6.0267795 L15.8532628,8.47851638 C13.5926223,8.31693351 11.3731917,9.14479468 9.77059941,10.747387 C8.16800708,12.3499793 7.3401459,14.5694099 7.50172878,16.8300504 L5.06952765,16.8300504 C4.32716908,11.3795756 9.67996513,5.41140331 15.8532628,6.0267795 Z" id="Shape"></path>
                        <path d="M15.8630307,10.7446636 L15.8630307,13.2061684 C14.8689701,13.1149348 13.8858081,13.4704092 13.179947,14.1762703 C12.4740858,14.8821314 12.1186115,15.8652935 12.209845,16.859354 L9.76787602,16.859354 C9.66419402,15.2114847 10.2722907,13.5982916 11.4379449,12.4289014 C12.6035991,11.2595111 14.214838,10.6462553 15.8630307,10.7446636 Z" id="Shape"></path>
                    </g>
                </g>
            </g>
        </g>
    </g>
</svg>